<svg height="45" viewBox="0 0 50 45" width="50" xmlns="http://www.w3.org/2000/svg"><path d="m5.478516 28.800781c0 7.197266 5.091797 11.966797 12.675781 11.966797h7.841797c.279297 0 .49414-.193359.49414-.49414 0-.279297-.171875-.494141-.451171-.494141h-7.820313c-7.046875 0-11.751953-4.382813-11.751953-10.978516s4.705078-11 11.751953-11h20.710938l4.533203-.042968-4.554688 4.511718-7.992187 7.992188c-.085938.085937-.128907.236328-.128907.386719 0 .257812.214844.49414.515625.49414.171875 0 .257813-.042969.365235-.15039l13.21289-13.320313c.107422-.107422.150391-.193359.150391-.365234 0-.150391-.042969-.257813-.150391-.365235l-13.21289-13.298828c-.107422-.107422-.19336-.171875-.365235-.171875-.300781 0-.515625.236328-.515625.494141 0 .171875.042969.322265.128907.408203l7.992187 7.970703 4.554688 4.533203-4.533203-.064453h-20.775391c-7.583984 0-12.675781 4.791016-12.675781 11.988281z" stroke="#000" stroke-width="3"/></svg>