<svg height="45" viewBox="0 0 50 45" width="50" xmlns="http://www.w3.org/2000/svg"><path d="m45.03125 28.800781c0-7.197265-5.091797-11.988281-12.675781-11.988281h-20.775391l-4.533203.064453 4.554688-4.533203 7.992187-7.970703c.085938-.085938.128906-.236328.128906-.408203 0-.257813-.214843-.494141-.515625-.494141-.171875 0-.257812.064453-.365234.171875l-13.212891 13.298828c-.107422.107422-.15039.214844-.15039.365235 0 .171875.042968.257812.15039.365234l13.212891 13.320313c.107422.107421.193359.15039.365234.15039.300782 0 .515625-.236328.515625-.49414 0-.150391-.042968-.300782-.128906-.386719l-7.992187-7.992188-4.554688-4.511718 4.533203.042968h20.710938c7.046875 0 11.751953 4.404297 11.751953 11s-4.705078 10.978516-11.751953 10.978516h-7.820313c-.279297 0-.451172.214844-.451172.494141 0 .300781.19336.49414.494141.49414h7.841797c7.583984 0 12.675781-4.769531 12.675781-11.966797z" stroke="#000" stroke-width="3"/></svg>