<?xml version="1.0" encoding="UTF-8"?>
<!-- Generated by Pixelmator Pro 3.7.1 -->
<svg width="686" height="686" viewBox="0 0 686 686" xmlns="http://www.w3.org/2000/svg">
    <path id="Path" fill="#000000" stroke="none" d="M 274.428589 78.79834 C 328.210052 78.79834 377.958008 100.310974 412.915924 136.613464 L 313.420197 236.109253 L 548.714294 236.109253 L 548.714294 0.815125 L 468.041992 81.487366 C 418.294128 31.739502 349.722687 0.815125 274.428589 0.815125 C 135.941208 0.815125 21.655487 103 2.831947 236.109253 L 82.159653 236.109253 C 99.638626 146.025208 178.966415 78.79834 274.428589 78.79834 Z M 494.9328 437.789948 C 520.478943 402.83194 539.302551 361.151276 544.680725 314.092438 L 465.352905 314.092438 C 447.873932 402.83194 368.546234 471.403412 273.084076 471.403412 C 219.30249 471.403412 169.554626 449.890747 134.596634 413.588257 L 234.092468 314.092438 L 0.142857 314.092438 L 0.142857 549.386597 L 80.815155 468.714325 C 130.563019 518.462219 199.13446 549.386597 274.428589 549.386597 C 334.9328 549.386597 391.403351 529.218506 437.117676 495.605042 L 628.042053 685.184937 L 685.857117 627.36969 L 494.9328 437.789948 Z"/>
</svg>
