<?xml version="1.0" encoding="UTF-8"?>
<!-- Generated by Pixelmator Pro 3.7.1 -->
<svg width="800" height="800" viewBox="0 0 800 800" xmlns="http://www.w3.org/2000/svg">
    <path id="Path" fill="#000000" stroke="none" d="M 349.905487 0 C 543.108093 0.234192 699.671326 156.797424 699.905518 350 C 699.65863 425.376709 674.850159 498.619049 629.238831 558.630005 L 785.257141 714.648315 C 797.94574 727.266479 802.922729 745.704102 798.307312 762.993225 C 793.691895 780.28241 780.187927 793.786377 762.898743 798.401855 C 745.609558 803.017212 727.171997 798.040283 714.553833 785.351685 L 558.535522 629.333313 C 498.524536 674.944641 425.282196 699.753113 349.905487 700 C 156.60582 700 -0.094503 543.299683 -0.094503 350 C -0.094503 156.700317 156.60582 0 349.905487 0 Z M 349.905487 600 C 487.976685 600 599.905518 488.071198 599.905518 350 C 599.905518 211.928833 487.976685 100 349.905487 100 C 211.834335 100 99.905495 211.928833 99.905495 350 C 100.067604 488.003998 211.901535 599.837891 349.905487 600 Z"/>
    <path id="Rounded-Rectangle" fill="#000000" fill-rule="evenodd" stroke="#000000" stroke-width="3" d="M 770.622925 838.279053 L 838.497437 770.577637 L 770.295837 702.20166 L 702.421265 769.903076 Z"/>
</svg>
