<svg height="800" viewBox="0 0 52 52" width="800" xmlns="http://www.w3.org/2000/svg"><path d="m30.4 11.3 13.6 13.5a1.57 1.57 0 0 1 0 2.2l-13.6 13.5a1.57 1.57 0 0 1 -2.2 0l-2.2-2.2a1.57 1.57 0 0 1 0-2.2l9.4-9.1a1.57 1.57 0 0 0 0-2.2l-9.3-9.1a1.57 1.57 0 0 1 0-2.2l2.2-2.2a1.66 1.66 0 0 1 2.1 0z"/><path d="m12.3 11.3 13.8 13.5a1.57 1.57 0 0 1 0 2.2l-13.8 13.5a1.57 1.57 0 0 1 -2.2 0l-2.2-2.2a1.57 1.57 0 0 1 0-2.2l9.4-9.1a1.57 1.57 0 0 0 0-2.2l-9.3-9.1a1.57 1.57 0 0 1 0-2.2l2.2-2.2a1.66 1.66 0 0 1 2.1 0z"/></svg>